<svg xmlns="http://www.w3.org/2000/svg" viewBox="0 0 250 250" width="32" height="32">
  <defs>
    <linearGradient id="bg" x1="0" y1="125" x2="250" y2="125" gradientUnits="userSpaceOnUse">
      <stop offset="0" stop-color="#04040A"/>
      <stop offset="1" stop-color="#000000"/>
    </linearGradient>
    <linearGradient id="hex" x1="43.8" y1="251" x2="206.2" y2="123.9" gradientUnits="userSpaceOnUse">
      <stop offset="0" stop-color="#00FF83"/>
      <stop offset="0.49" stop-color="#00A854"/>
      <stop offset="1" stop-color="#00A854"/>
    </linearGradient>
    <linearGradient id="p1" x1="148.3" y1="91.2" x2="144.6" y2="131.8" gradientUnits="userSpaceOnUse">
      <stop offset="0.01" stop-color="#4AF09A" stop-opacity="0"/>
      <stop offset="0.44" stop-color="#04040A" stop-opacity="0.43"/>
      <stop offset="1" stop-color="#04040A"/>
    </linearGradient>
    <linearGradient id="p2" x1="134.5" y1="98.7" x2="130.9" y2="139.3" gradientUnits="userSpaceOnUse">
      <stop offset="0.01" stop-color="#4AF09A" stop-opacity="0.07"/>
      <stop offset="0.49" stop-color="#143A2B" stop-opacity="0.63"/>
      <stop offset="1" stop-color="#04040A"/>
    </linearGradient>
    <linearGradient id="p3" x1="118.5" y1="108.8" x2="114.9" y2="149.4" gradientUnits="userSpaceOnUse">
      <stop offset="0.01" stop-color="#4AF09A" stop-opacity="0.45"/>
      <stop offset="1" stop-color="#04040A" stop-opacity="0.75"/>
    </linearGradient>
    <linearGradient id="p4" x1="101.8" y1="117.2" x2="98.2" y2="157.7" gradientUnits="userSpaceOnUse">
      <stop offset="0.01" stop-color="#4AF09A"/>
      <stop offset="1" stop-color="#00E676"/>
    </linearGradient>
  </defs>
  <path d="M0 0h250v250H0z" fill="url(#bg)"/>
  <path d="M115.05 35.7L52.64 71.74c-6.16 3.55-9.95 10.12-9.95 17.23v72.07c0 7.1 3.79 13.67 9.95 17.22l62.41 36.04c6.16 3.55 13.74 3.55 19.9 0l62.41-36.04c6.16-3.55 9.95-10.12 9.95-17.22V88.97c0-7.11-3.79-13.67-9.95-17.23L134.95 35.7c-3.08-1.78-6.51-2.66-9.95-2.66s-6.87.89-9.95 2.66zm0 153L74.8 165.47c-6.16-3.55-9.95-10.12-9.95-17.23V101.76c0-7.1 3.79-13.67 9.95-17.23l40.25-23.24c6.16-3.55 13.74-3.55 19.9 0l40.25 23.24c6.15 3.55 9.95 10.12 9.95 17.23v46.48c0 7.1-3.8 13.67-9.95 17.23l-40.25 23.24c-3.08 1.78-6.51 2.66-9.95 2.66s-6.87-.89-9.95-2.66z" fill="url(#hex)"/>
  <path d="M131.5 89.46v29.96c0 1.18.63 2.26 1.64 2.85l24.97 14.45c1.39.8 3.13-.2 3.13-1.8v-30.72c0-1.41-.8-2.71-2.06-3.34l-25.42-12.79c-.23-.11-.47-.17-.7-.17-.82 0-1.56.66-1.56 1.56z" fill="url(#p1)"/>
  <path d="M117.76 96.96v29.96c0 1.18.63 2.26 1.64 2.85l24.97 14.45c1.39.8 3.13-.2 3.13-1.8v-30.72c0-1.41-.8-2.71-2.06-3.35l-25.42-12.79c-.23-.11-.47-.17-.7-.17-.82 0-1.56.66-1.56 1.56z" fill="url(#p2)"/>
  <path d="M101.76 107.04v29.96c0 1.18.63 2.26 1.64 2.85l24.97 14.45c1.39.8 3.13-.2 3.13-1.8v-30.71c0-1.42-.8-2.71-2.06-3.35l-25.42-12.79c-.23-.11-.47-.17-.7-.17-.82 0-1.56.66-1.56 1.56z" fill="url(#p3)"/>
  <path d="M85.07 115.4v29.96c0 1.18.63 2.26 1.64 2.85l24.97 14.45c1.39.8 3.13-.2 3.13-1.8v-30.72c0-1.41-.8-2.71-2.06-3.34l-25.42-12.79c-.23-.12-.47-.17-.7-.17-.82 0-1.56.66-1.56 1.56z" fill="url(#p4)"/>
</svg>
