<svg version="1.1" xmlns="http://www.w3.org/2000/svg" xmlns:xlink="http://www.w3.org/1999/xlink" x="0" y="0" width="250" height="250" viewBox="0, 0, 250, 250">
  <defs>
    <linearGradient id="Gradient_2" gradientUnits="userSpaceOnUse" x1="43.801" y1="250.964" x2="206.199" y2="123.912">
      <stop offset="0" stop-color="#00FF83"/>
      <stop offset="0.49" stop-color="#00A854"/>
      <stop offset="1" stop-color="#00A854"/>
    </linearGradient>
    <linearGradient id="Gradient_3" gradientUnits="userSpaceOnUse" x1="148.252" y1="91.235" x2="144.614" y2="131.781">
      <stop offset="0.011" stop-color="#4AF09A" stop-opacity="0"/>
      <stop offset="0.437" stop-color="#04040A" stop-opacity="0.431"/>
      <stop offset="1" stop-color="#04040A"/>
    </linearGradient>
    <linearGradient id="Gradient_4" gradientUnits="userSpaceOnUse" x1="134.51" y1="98.735" x2="130.872" y2="139.281">
      <stop offset="0.014" stop-color="#4AF09A" stop-opacity="0.071"/>
      <stop offset="0.488" stop-color="#143A2B" stop-opacity="0.625"/>
      <stop offset="1" stop-color="#04040A"/>
    </linearGradient>
    <linearGradient id="Gradient_5" gradientUnits="userSpaceOnUse" x1="118.51" y1="108.815" x2="114.872" y2="149.361">
      <stop offset="0.014" stop-color="#4AF09A" stop-opacity="0.448"/>
      <stop offset="1" stop-color="#04040A" stop-opacity="0.747"/>
    </linearGradient>
    <linearGradient id="Gradient_6" gradientUnits="userSpaceOnUse" x1="101.827" y1="117.175" x2="98.188" y2="157.721">
      <stop offset="0.014" stop-color="#4AF09A"/>
      <stop offset="1" stop-color="#00E676"/>
    </linearGradient>
  </defs>
  <g id="Ebene_1">
    <path d="M115.053,35.704 L52.641,71.738 C46.486,75.292 42.694,81.858 42.694,88.966 L42.694,88.966 L42.694,161.034 C42.694,168.142 46.486,174.709 52.641,178.262 L52.641,178.262 L115.053,214.296 C121.209,217.85 128.792,217.85 134.947,214.296 L134.947,214.296 L197.359,178.262 C203.514,174.709 207.306,168.142 207.306,161.034 L207.306,161.034 L207.306,88.966 C207.306,81.858 203.514,75.292 197.359,71.738 L197.359,71.738 L134.947,35.704 C131.87,33.927 128.435,33.039 125.001,33.039 L125.001,33.039 C121.566,33.039 118.131,33.927 115.053,35.704 z M115.053,188.707 L74.801,165.467 C68.646,161.914 64.854,155.347 64.854,148.24 L64.854,148.24 L64.854,101.761 C64.854,94.653 68.646,88.086 74.801,84.532 L74.801,84.532 L115.053,61.293 C121.209,57.739 128.792,57.739 134.947,61.293 L134.947,61.293 L175.198,84.532 C181.354,88.086 185.145,94.653 185.145,101.761 L185.145,101.761 L185.145,148.24 C185.145,155.347 181.354,161.914 175.198,165.467 L175.198,165.467 L134.947,188.707 C131.87,190.484 128.435,191.372 125.001,191.372 L125.001,191.372 C121.566,191.372 118.131,190.484 115.053,188.707 z" fill="url(#Gradient_2)"/>
    <path d="M131.5,89.458 L131.5,119.422 C131.5,120.597 132.127,121.683 133.143,122.271 L133.143,122.271 L158.115,136.717 C159.504,137.52 161.242,136.518 161.242,134.914 L161.242,134.914 L161.242,104.2 C161.242,102.786 160.444,101.491 159.18,100.855 L159.18,100.855 L133.756,88.067 C133.527,87.952 133.289,87.899 133.058,87.899 L133.058,87.899 C132.241,87.899 131.5,88.555 131.5,89.458 z" fill="url(#Gradient_3)"/>
    <path d="M117.758,96.958 L117.758,126.922 C117.758,128.097 118.385,129.183 119.401,129.771 L119.401,129.771 L144.374,144.217 C145.763,145.02 147.5,144.018 147.5,142.414 L147.5,142.414 L147.5,111.7 C147.5,110.286 146.702,108.991 145.438,108.355 L145.438,108.355 L120.014,95.567 C119.786,95.452 119.547,95.399 119.316,95.399 L119.316,95.399 C118.499,95.399 117.758,96.055 117.758,96.958 z" fill="url(#Gradient_4)"/>
    <path d="M101.758,107.038 L101.758,137.002 C101.758,138.177 102.385,139.263 103.401,139.851 L103.401,139.851 L128.374,154.297 C129.763,155.1 131.5,154.098 131.5,152.494 L131.5,152.494 L131.5,121.78 C131.5,120.366 130.702,119.071 129.438,118.435 L129.438,118.435 L104.014,105.647 C103.786,105.532 103.547,105.479 103.316,105.479 L103.316,105.479 C102.499,105.479 101.758,106.135 101.758,107.038 z" fill="url(#Gradient_5)"/>
    <path d="M85.074,115.398 L85.074,145.362 C85.074,146.537 85.701,147.623 86.718,148.211 L86.718,148.211 L111.69,162.657 C113.079,163.46 114.816,162.458 114.816,160.854 L114.816,160.854 L114.816,130.14 C114.816,128.726 114.018,127.431 112.754,126.795 L112.754,126.795 L87.33,114.007 C87.102,113.892 86.863,113.839 86.632,113.839 L86.632,113.839 C85.815,113.839 85.074,114.495 85.074,115.398 z" fill="url(#Gradient_6)"/>
  </g>
</svg>
